<?xml version="1.0" standalone="no"?>
<!DOCTYPE svg PUBLIC "-//W3C//DTD SVG 20010904//EN"
 "http://www.w3.org/TR/2001/REC-SVG-20010904/DTD/svg10.dtd">
<svg version="1.0" xmlns="http://www.w3.org/2000/svg"
 width="16.000000pt" height="16.000000pt" viewBox="0 0 16.000000 16.000000"
 preserveAspectRatio="xMidYMid meet">

<g transform="translate(0.000000,16.000000) scale(0.100000,-0.100000)"
fill="#000000" stroke="none">
<path d="M0 151 c0 -4 36 -8 80 -8 44 0 80 3 80 8 0 5 -36 9 -80 9 -44 0 -80
-4 -80 -9z"/>
<path d="M61 112 c-6 -11 -6 -24 0 -33 14 -22 11 -59 -5 -59 -8 0 -16 6 -18
12 -3 9 -9 8 -21 -4 -9 -9 -17 -19 -17 -22 0 -3 36 -6 80 -6 44 0 80 4 80 9 0
4 -11 7 -25 6 -34 -4 -50 18 -37 53 16 46 -16 84 -37 44z"/>
<path d="M120 80 c0 -5 7 -10 15 -10 8 0 15 5 15 10 0 6 -7 10 -15 10 -8 0
-15 -4 -15 -10z"/>
</g>
</svg>
