<?xml version="1.0" standalone="no"?>
<!DOCTYPE svg PUBLIC "-//W3C//DTD SVG 20010904//EN"
 "http://www.w3.org/TR/2001/REC-SVG-20010904/DTD/svg10.dtd">
<svg version="1.0" xmlns="http://www.w3.org/2000/svg"
 width="1352.000000pt" height="1409.000000pt" viewBox="0 0 1352.000000 1409.000000"
 preserveAspectRatio="xMidYMid meet">

<g transform="translate(0.000000,1409.000000) scale(0.100000,-0.100000)"
fill="#000000" stroke="none">
<path d="M15 14068 c-3 -7 -4 -285 -3 -618 l3 -605 333 -3 332 -2 0 -5800 0
-5800 -332 -2 -333 -3 0 -615 0 -615 6750 0 6750 0 3 618 2 617 -335 0 -335 0
0 5800 0 5800 335 0 335 0 -2 618 -3 617 -6748 3 c-5393 2 -6749 0 -6752 -10z
m3035 -7028 l0 -5800 -1015 0 -1015 0 0 5800 0 5800 1015 0 1015 0 0 -5800z
m2370 3502 l0 -2297 150 -23 c83 -13 157 -25 165 -28 13 -5 15 263 15 2320 l0
2326 1015 0 1015 0 0 -2325 0 -2325 25 6 c13 3 88 16 167 28 l143 22 3 2297 2
2297 1015 0 1015 0 0 -5800 0 -5800 -1015 0 -1015 0 0 3026 0 3026 -37 -6
c-83 -13 -220 -17 -260 -8 l-43 10 0 -3024 0 -3024 -1015 0 -1015 0 0 3024 0
3024 -37 -10 c-37 -10 -192 -5 -260 8 l-33 6 0 -3026 0 -3026 -1015 0 -1015 0
0 5800 0 5800 1015 0 1015 0 0 -2298z m7090 -22 l0 -2320 -1015 0 -1015 0 0
2320 0 2320 1015 0 1015 0 0 -2320z m-874 -3013 c192 -98 203 -373 19 -487
l-35 -22 0 -189 0 -189 -115 0 -115 0 0 190 0 190 -39 24 c-78 50 -122 133
-123 233 -1 125 69 224 189 269 57 21 157 13 219 -19z m874 -3907 l0 -2360
-1015 0 -1015 0 0 2360 0 2360 1015 0 1015 0 0 -2360z"/>
<path d="M2565 3525 c-233 -44 -416 -138 -587 -303 -210 -202 -324 -457 -335
-749 -6 -154 7 -260 48 -388 111 -347 378 -613 727 -725 91 -30 95 -30 317
-30 l225 0 0 1094 c0 1032 -1 1094 -17 1101 -37 15 -296 15 -378 0z"/>
<path d="M6635 11549 c-291 -37 -574 -207 -743 -448 l-52 -74 0 -537 0 -537
49 -69 c144 -205 357 -358 591 -423 296 -82 616 -31 880 140 81 53 233 204
288 286 l42 62 0 539 0 540 -42 63 c-55 82 -195 224 -276 278 -137 92 -319
160 -484 181 -94 11 -153 11 -253 -1z"/>
<path d="M5840 8947 l0 -793 49 -36 c181 -136 242 -379 145 -584 -29 -61 -108
-152 -160 -184 l-34 -22 0 -2603 0 -2604 48 -8 c26 -4 151 -8 277 -8 240 1
322 10 476 56 83 24 126 24 163 0 94 -62 86 -194 -16 -244 -48 -24 -207 -63
-315 -78 -90 -13 -404 -18 -548 -9 l-80 5 -3 -238 -2 -237 27 -13 c19 -8 87
-12 203 -12 173 0 176 0 240 30 152 70 275 208 320 361 12 40 12 40 106 69 52
15 102 34 111 41 26 19 33 17 33 -10 0 -39 40 -157 72 -213 66 -118 191 -222
313 -263 57 -19 82 -21 217 -18 88 2 165 9 181 16 l27 12 0 2982 0 2983 -58
45 c-68 54 -135 150 -159 228 -25 81 -23 219 4 294 31 83 89 165 155 216 l58
45 0 794 c0 908 9 839 -95 732 -261 -265 -631 -390 -995 -335 -246 37 -477
153 -649 326 -122 122 -111 196 -111 -723z m1030 -4947 l0 -1761 -32 18 c-23
12 -56 17 -105 18 l-73 0 0 1743 0 1742 105 0 105 0 0 -1760z"/>
<path d="M8210 9106 l0 -435 88 -57 c108 -70 234 -168 287 -224 l40 -41 -23
-19 c-64 -52 -403 -154 -695 -208 -122 -23 -176 -46 -241 -103 -59 -52 -114
-161 -122 -244 -16 -156 77 -315 224 -383 109 -50 221 -40 587 48 646 155 977
395 1051 760 49 245 -49 493 -291 735 -186 186 -422 348 -807 554 l-98 52 0
-435z"/>
<path d="M5190 9469 c-343 -181 -581 -346 -772 -535 -207 -204 -301 -401 -300
-624 1 -283 196 -536 535 -695 258 -120 752 -249 957 -250 83 0 102 3 156 28
77 36 154 113 191 192 24 52 28 72 28 155 0 82 -4 103 -27 152 -34 74 -107
151 -172 183 -32 15 -127 40 -246 65 -285 57 -540 137 -609 189 l-24 18 38 42
c45 49 195 164 308 235 l77 49 0 429 c0 336 -3 428 -12 428 -7 0 -65 -28 -128
-61z"/>
<path d="M3480 2426 l0 -849 20 18 c20 18 22 18 98 -23 169 -90 383 -163 582
-198 139 -25 399 -23 551 4 144 26 359 96 495 161 l104 50 0 308 -1 308 -29
-32 c-65 -72 -65 -219 1 -289 l21 -22 -64 -36 c-501 -280 -987 -305 -1476 -75
l-104 48 20 28 c34 48 84 155 113 241 133 393 34 829 -256 1130 l-74 77 -1
-849z"/>
</g>
</svg>
